<svg width="18" height="20" viewBox="0 0 18 20" fill="none" xmlns="http://www.w3.org/2000/svg">
<path fill-rule="evenodd" clip-rule="evenodd" d="M0.599976 18.4C0.599976 18.0817 0.726404 17.7765 0.951447 17.5515C1.17649 17.3264 1.48172 17.2 1.79998 17.2H16.2C16.5182 17.2 16.8235 17.3264 17.0485 17.5515C17.2735 17.7765 17.4 18.0817 17.4 18.4C17.4 18.7183 17.2735 19.0235 17.0485 19.2485C16.8235 19.4736 16.5182 19.6 16.2 19.6H1.79998C1.48172 19.6 1.17649 19.4736 0.951447 19.2485C0.726404 19.0235 0.599976 18.7183 0.599976 18.4ZM4.55158 6.0484C4.32661 5.82336 4.20023 5.51819 4.20023 5.2C4.20023 4.8818 4.32661 4.57663 4.55158 4.3516L8.15158 0.751597C8.37661 0.526632 8.68178 0.400253 8.99998 0.400253C9.31817 0.400253 9.62334 0.526632 9.84838 0.751597L13.4484 4.3516C13.667 4.57792 13.7879 4.88104 13.7852 5.19568C13.7825 5.51031 13.6562 5.81129 13.4338 6.03378C13.2113 6.25627 12.9103 6.38247 12.5957 6.38521C12.281 6.38794 11.9779 6.26699 11.7516 6.0484L10.2 4.4968V13.6C10.2 13.9183 10.0735 14.2235 9.8485 14.4485C9.62346 14.6736 9.31824 14.8 8.99998 14.8C8.68172 14.8 8.37649 14.6736 8.15145 14.4485C7.9264 14.2235 7.79998 13.9183 7.79998 13.6V4.4968L6.24838 6.0484C6.02334 6.27336 5.71817 6.39974 5.39998 6.39974C5.08178 6.39974 4.77661 6.27336 4.55158 6.0484Z" fill="white"/>
</svg>
